<?xml version="1.0" encoding="utf-8"?>
<!-- Generator: Adobe Illustrator 17.0.0, SVG Export Plug-In . SVG Version: 6.00 Build 0)  -->
<!DOCTYPE svg PUBLIC "-//W3C//DTD SVG 1.1//EN" "http://www.w3.org/Graphics/SVG/1.1/DTD/svg11.dtd">
<svg version="1.1" id="Слой_1" xmlns="http://www.w3.org/2000/svg" xmlns:xlink="http://www.w3.org/1999/xlink" x="0px" y="0px"
	 width="34.571px" height="31.343px" viewBox="0 0 34.571 31.343" enable-background="new 0 0 34.571 31.343" xml:space="preserve">
<polygon fill="#FFFFFF" points="3.602,24.518 2.375,24.518 2.375,25.004 3.503,25.004 3.503,25.414 2.375,25.414 2.375,26.012 
	3.658,26.012 3.658,26.423 1.901,26.423 1.901,24.107 3.602,24.107 "/>
<path fill="#FFFFFF" d="M6.249,26.328L5.997,26.09c0.142-0.18,0.242-0.444,0.242-0.825c0-1.086-0.807-1.218-1.112-1.218
	c-0.306,0-1.112,0.132-1.112,1.218c0,1.088,0.807,1.219,1.112,1.219c0.135,0,0.374-0.025,0.593-0.155l0.274,0.261L6.249,26.328z
	 M5.156,25.793l0.232,0.219c-0.087,0.046-0.181,0.062-0.261,0.062c-0.261,0-0.629-0.16-0.629-0.809c0-0.647,0.368-0.809,0.629-0.809
	c0.261,0,0.629,0.161,0.629,0.809c0,0.218-0.042,0.378-0.106,0.497l-0.245-0.229L5.156,25.793z"/>
<path fill="#FFFFFF" d="M8.515,25.613c0,0.608-0.368,0.87-0.951,0.87c-0.213,0-0.529-0.052-0.734-0.28
	c-0.126-0.141-0.175-0.33-0.181-0.561v-1.534h0.493v1.501c0,0.323,0.188,0.464,0.412,0.464c0.332,0,0.467-0.161,0.467-0.441v-1.523
	h0.494V25.613z"/>
<path fill="#FFFFFF" d="M9.384,25.944h0.853l0.149,0.478h0.524l-0.814-2.313H9.538l-0.824,2.313h0.509L9.384,25.944z M9.81,24.63
	h0.007l0.286,0.915h-0.59L9.81,24.63z"/>
<polygon fill="#FFFFFF" points="11.772,26.003 12.923,26.003 12.923,26.422 11.288,26.422 11.288,24.108 11.772,24.108 "/>
<polygon fill="#FFFFFF" points="14.756,25.384 14.756,26.422 14.273,26.422 14.273,24.107 14.756,24.107 14.756,24.985 
	15.659,24.985 15.659,24.107 16.142,24.107 16.142,26.422 15.659,26.422 15.659,25.384 "/>
<path fill="#FFFFFF" d="M16.58,25.265c0,1.087,0.806,1.218,1.111,1.218c0.308,0,1.112-0.131,1.112-1.218
	c0-1.086-0.805-1.218-1.112-1.218C17.386,24.047,16.58,24.179,16.58,25.265 M17.063,25.265c0-0.647,0.367-0.809,0.628-0.809
	c0.262,0,0.629,0.161,0.629,0.809c0,0.648-0.367,0.81-0.629,0.81C17.431,26.074,17.063,25.913,17.063,25.265"/>
<path fill="#FFFFFF" d="M21.112,25.613c0,0.608-0.368,0.87-0.952,0.87c-0.212,0-0.527-0.052-0.734-0.28
	c-0.126-0.141-0.175-0.33-0.18-0.561v-1.534h0.492v1.501c0,0.323,0.188,0.464,0.414,0.464c0.331,0,0.467-0.161,0.467-0.441v-1.523
	h0.493V25.613z"/>
<path fill="#FFFFFF" d="M21.997,25.71c0.004,0.128,0.068,0.374,0.49,0.374c0.228,0,0.483-0.056,0.483-0.302
	c0-0.179-0.174-0.227-0.418-0.285l-0.249-0.059c-0.375-0.087-0.735-0.17-0.735-0.679c0-0.258,0.14-0.713,0.891-0.713
	c0.709,0,0.898,0.464,0.903,0.748h-0.466c-0.013-0.103-0.051-0.349-0.474-0.349c-0.184,0-0.402,0.067-0.402,0.277
	c0,0.181,0.148,0.219,0.244,0.241l0.564,0.139c0.315,0.077,0.606,0.207,0.606,0.622c0,0.697-0.709,0.757-0.912,0.757
	c-0.844,0-0.988-0.485-0.988-0.772H21.997z"/>
<rect x="23.832" y="24.108" fill="#FFFFFF" width="0.482" height="2.313"/>
<polygon fill="#FFFFFF" points="26.246,24.107 26.696,24.107 26.696,26.422 26.214,26.422 25.269,24.771 25.262,24.771 
	25.262,26.422 24.81,26.422 24.81,24.107 25.319,24.107 26.237,25.72 26.246,25.72 "/>
<path fill="#FFFFFF" d="M28.314,25.175h0.966v1.247h-0.322l-0.048-0.289c-0.122,0.141-0.3,0.351-0.722,0.351
	c-0.557,0-1.063-0.399-1.063-1.211c0-0.633,0.353-1.229,1.132-1.226c0.71,0,0.989,0.46,1.015,0.78h-0.483
	c0-0.09-0.165-0.381-0.506-0.381c-0.346,0-0.664,0.238-0.664,0.831c0,0.633,0.346,0.796,0.673,0.796
	c0.106,0,0.462-0.041,0.562-0.509h-0.538V25.175z"/>
<path fill="#FFFFFF" d="M1.798,28.781C1.798,29.867,2.603,30,2.91,30c0.306,0,1.112-0.133,1.112-1.219
	c0-1.087-0.807-1.219-1.112-1.219C2.603,27.563,1.798,27.694,1.798,28.781 M2.282,28.781c0-0.648,0.367-0.809,0.628-0.809
	c0.261,0,0.628,0.161,0.628,0.809c0,0.646-0.367,0.81-0.628,0.81C2.649,29.591,2.282,29.428,2.282,28.781"/>
<path fill="#FFFFFF" d="M5.347,29.104H5.9c0.622,0,0.738-0.529,0.738-0.738c0-0.454-0.271-0.741-0.72-0.741H4.863v2.314h0.483
	V29.104z M5.347,28.703v-0.681H5.73c0.299,0,0.425,0.095,0.425,0.319c0,0.104,0,0.361-0.361,0.361H5.347z"/>
<path fill="#FFFFFF" d="M7.95,29.104h0.554c0.622,0,0.738-0.529,0.738-0.738c0-0.454-0.271-0.741-0.718-0.741H7.466v2.314H7.95
	V29.104z M7.95,28.703v-0.681h0.383c0.3,0,0.425,0.095,0.425,0.319c0,0.104,0,0.361-0.359,0.361H7.95z"/>
<path fill="#FFFFFF" d="M9.968,28.781c0,1.086,0.806,1.219,1.112,1.219c0.306,0,1.111-0.133,1.111-1.219
	c0-1.087-0.806-1.219-1.111-1.219C10.773,27.563,9.968,27.694,9.968,28.781 M10.451,28.781c0-0.648,0.366-0.809,0.629-0.809
	c0.261,0,0.628,0.161,0.628,0.809c0,0.646-0.367,0.81-0.628,0.81C10.817,29.591,10.451,29.428,10.451,28.781"/>
<path fill="#FFFFFF" d="M13.031,29.938h0.476v-0.906h0.499c0.358,0,0.377,0.122,0.377,0.438c0,0.237,0.019,0.356,0.051,0.468h0.535
	v-0.063c-0.104-0.038-0.104-0.122-0.104-0.459c0-0.433-0.102-0.503-0.293-0.587c0.229-0.077,0.358-0.297,0.358-0.551
	c0-0.2-0.112-0.654-0.728-0.654h-1.171V29.938z M13.507,28.643v-0.62h0.602c0.283,0,0.338,0.182,0.338,0.304
	c0,0.229-0.121,0.316-0.374,0.316H13.507z"/>
<polygon fill="#FFFFFF" points="16.731,29.938 16.248,29.938 16.248,28.033 15.55,28.033 15.55,27.624 17.432,27.624 17.432,28.033 
	16.731,28.033 "/>
<path fill="#FFFFFF" d="M20.025,29.128c0,0.609-0.367,0.872-0.951,0.872c-0.212,0-0.528-0.054-0.734-0.282
	c-0.126-0.141-0.175-0.327-0.18-0.56v-1.534h0.492v1.501c0,0.322,0.187,0.465,0.413,0.465c0.332,0,0.467-0.162,0.467-0.441v-1.524
	h0.493V29.128z"/>
<polygon fill="#FFFFFF" points="22.364,27.624 22.816,27.624 22.816,29.938 22.333,29.938 21.388,28.288 21.383,28.288 
	21.383,29.938 20.931,29.938 20.931,27.624 21.439,27.624 22.358,29.235 22.364,29.235 "/>
<rect x="23.695" y="27.624" fill="#FFFFFF" width="0.485" height="2.315"/>
<polygon fill="#FFFFFF" points="26.067,29.938 25.585,29.938 25.585,28.033 24.886,28.033 24.886,27.624 26.768,27.624 
	26.768,28.033 26.067,28.033 "/>
<polygon fill="#FFFFFF" points="28.595,29.938 28.111,29.938 28.111,29.065 27.311,27.624 27.882,27.624 28.363,28.63 
	28.821,27.624 29.368,27.624 28.595,29.07 "/>
<path fill="#FFFFFF" d="M25.93,18.836H5.116V8.953l10.465-5.348L25.93,8.953V18.836z M15.581,0L0,7.674v3.605h1.744v10.813h27.557
	V11.279h2.094V7.674L15.581,0z"/>
<rect x="10.697" y="8.954" fill="#FFFFFF" width="9.649" height="3.487"/>
<rect x="10.697" y="13.953" fill="#FFFFFF" width="9.649" height="3.49"/>
</svg>
