<?xml version="1.0" encoding="UTF-8" standalone="no"?>
<svg
   xmlns:dc="http://purl.org/dc/elements/1.1/"
   xmlns:cc="http://creativecommons.org/ns#"
   xmlns:rdf="http://www.w3.org/1999/02/22-rdf-syntax-ns#"
   xmlns:svg="http://www.w3.org/2000/svg"
   xmlns="http://www.w3.org/2000/svg"
   xml:space="preserve"
   enable-background="new 0 0 36.353 30"
   viewBox="0 0 36.353 30"
   height="30px"
   width="36.353px"
   y="0px"
   x="0px"
   id="Слой_1"
   version="1.1"><metadata
     id="metadata4148"><rdf:RDF><cc:Work
         rdf:about=""><dc:format>image/svg+xml</dc:format><dc:type
           rdf:resource="http://purl.org/dc/dcmitype/StillImage" /><dc:title></dc:title></cc:Work></rdf:RDF></metadata><defs
     id="defs4146" /><path
     id="path4140"
     d="m 12.644591,0.76271183 c -1.650895,0 -2.9899997,1.35018837 -2.9899997,3.01474777 0,1.3237034 0.8482937,2.4459761 2.0255407,2.8505694 l 0,10.615666 10.009611,0.01083 5.187318,8.762794 3.630586,-2.376076 -1.104027,-1.712146 -1.846607,1.282756 -4.74535,-8.008657 -9.105989,0.05232 0,-1.901582 4.820503,0 0,-2.040502 -4.820503,0 0,-4.7214822 c 1.125944,-0.4323051 1.927128,-1.5258845 1.927128,-2.8144862 0,-1.6645594 -1.338232,-3.01474777 -2.988211,-3.01474777 z M 10.232551,11.506472 c -2.8089039,1.522305 -4.7238779,4.513772 -4.7238779,7.94912 0,4.972432 4.0115453,9.018985 8.9431589,9.018985 3.74154,0 6.951687,-2.32862 8.284679,-5.62356 l -1.703459,-2.587162 c -0.396691,3.306025 -3.196061,5.876142 -6.58122,5.876142 -3.656338,0 -6.6295325,-2.999651 -6.6295325,-6.684405 0,-2.071924 0.9389207,-3.925963 2.4102515,-5.152675 l 0,-2.796445 z"
     style="fill:#ffffff" /></svg>